<mxfile host="app.diagrams.net" modified="2021-01-05T19:26:45.485Z" agent="5.0 (Macintosh; Intel Mac OS X 10_15_7) AppleWebKit/537.36 (KHTML, like Gecko) Chrome/87.0.4280.88 Safari/537.36" etag="evODnr3cUjfeSpdyp5Gl" version="14.1.8" type="github">
  <diagram id="k_AX72Jlf05Sg8vSuUET" name="Page-1">
    <mxGraphModel dx="374" dy="194" grid="1" gridSize="10" guides="1" tooltips="1" connect="1" arrows="1" fold="1" page="1" pageScale="1" pageWidth="850" pageHeight="1100" math="0" shadow="0">
      <root>
        <mxCell id="0" />
        <mxCell id="1" parent="0" />
        <mxCell id="f2Iedu3TyyTI3fCIjMg3-89" value="&lt;font color=&quot;#000033&quot;&gt;&lt;font style=&quot;font-size: 17px&quot;&gt;&lt;br&gt;package : Java.Util&lt;br&gt;&lt;br&gt;&lt;br&gt;&lt;br&gt;&lt;/font&gt;&lt;br&gt;&lt;br&gt;&lt;br&gt;&lt;br&gt;&lt;br&gt;&lt;br&gt;&lt;br&gt;&lt;br&gt;&lt;br&gt;&lt;br&gt;&lt;br&gt;&lt;br&gt;&lt;br&gt;&lt;br&gt;&lt;br&gt;&lt;br&gt;&lt;br&gt;&lt;br&gt;&lt;br&gt;&lt;br&gt;&lt;br&gt;&lt;br&gt;&lt;br&gt;&lt;br&gt;&lt;br&gt;&lt;br&gt;&lt;br&gt;&lt;br&gt;&lt;br&gt;&lt;br&gt;&lt;br&gt;&lt;br&gt;&lt;br&gt;&lt;br&gt;&lt;br&gt;&lt;br&gt;&lt;br&gt;&lt;br&gt;&lt;br&gt;&lt;br&gt;&lt;br&gt;&lt;br&gt;&lt;br&gt;&lt;br&gt;&lt;br&gt;&lt;br&gt;&lt;/font&gt;" style="shape=folder;fontStyle=1;spacingTop=10;tabWidth=240;tabHeight=50;tabPosition=left;html=1;fillColor=#dae8fc;opacity=30;sketch=1;shadow=0;strokeColor=#6c8ebf;" parent="1" vertex="1">
          <mxGeometry x="40" y="225" width="2360" height="815" as="geometry" />
        </mxCell>
        <mxCell id="f2Iedu3TyyTI3fCIjMg3-1" value="«interface»&lt;br&gt;Iterable&amp;lt;T&amp;gt;" style="html=1;strokeColor=none;fillColor=#67AB9F;opacity=50;fontStyle=1;sketch=1;" parent="1" vertex="1">
          <mxGeometry x="560" y="75" width="110" height="50" as="geometry" />
        </mxCell>
        <mxCell id="f2Iedu3TyyTI3fCIjMg3-27" value="" style="edgeStyle=orthogonalEdgeStyle;rounded=0;orthogonalLoop=1;jettySize=auto;html=1;fontStyle=1;sketch=1;fillColor=#f8cecc;strokeColor=#FF0000;" parent="1" source="f2Iedu3TyyTI3fCIjMg3-2" target="f2Iedu3TyyTI3fCIjMg3-1" edge="1">
          <mxGeometry relative="1" as="geometry" />
        </mxCell>
        <mxCell id="f2Iedu3TyyTI3fCIjMg3-2" value="«interface»&lt;br&gt;Collection&amp;lt;E&amp;gt;" style="html=1;fillColor=#67AB9F;strokeColor=none;opacity=50;fontStyle=1;sketch=1;" parent="1" vertex="1">
          <mxGeometry x="560" y="355" width="110" height="50" as="geometry" />
        </mxCell>
        <mxCell id="f2Iedu3TyyTI3fCIjMg3-29" value="" style="rounded=0;orthogonalLoop=1;jettySize=auto;html=1;entryX=0.25;entryY=1;entryDx=0;entryDy=0;exitX=0.5;exitY=0;exitDx=0;exitDy=0;fontStyle=1;sketch=1;fillColor=#f8cecc;strokeColor=#FF0000;" parent="1" source="f2Iedu3TyyTI3fCIjMg3-3" target="f2Iedu3TyyTI3fCIjMg3-2" edge="1">
          <mxGeometry relative="1" as="geometry" />
        </mxCell>
        <mxCell id="f2Iedu3TyyTI3fCIjMg3-3" value="«interface»&lt;br&gt;Set&amp;lt;E&amp;gt;" style="html=1;fillColor=#67AB9F;strokeColor=none;opacity=50;fontStyle=1;sketch=1;" parent="1" vertex="1">
          <mxGeometry x="330" y="475" width="110" height="50" as="geometry" />
        </mxCell>
        <mxCell id="f2Iedu3TyyTI3fCIjMg3-30" value="" style="edgeStyle=none;rounded=0;orthogonalLoop=1;jettySize=auto;html=1;fontStyle=1;sketch=1;fillColor=#f8cecc;strokeColor=#FF0000;" parent="1" source="f2Iedu3TyyTI3fCIjMg3-4" target="f2Iedu3TyyTI3fCIjMg3-2" edge="1">
          <mxGeometry relative="1" as="geometry" />
        </mxCell>
        <mxCell id="f2Iedu3TyyTI3fCIjMg3-4" value="«interface»&lt;br&gt;Queue&amp;lt;E&amp;gt;" style="html=1;fillColor=#67AB9F;strokeColor=none;opacity=50;fontStyle=1;sketch=1;" parent="1" vertex="1">
          <mxGeometry x="560" y="475" width="110" height="50" as="geometry" />
        </mxCell>
        <mxCell id="f2Iedu3TyyTI3fCIjMg3-31" value="" style="edgeStyle=none;rounded=0;orthogonalLoop=1;jettySize=auto;html=1;entryX=0.75;entryY=1;entryDx=0;entryDy=0;exitX=0.5;exitY=0;exitDx=0;exitDy=0;fontStyle=1;sketch=1;fillColor=#f8cecc;strokeColor=#FF0000;" parent="1" source="f2Iedu3TyyTI3fCIjMg3-5" target="f2Iedu3TyyTI3fCIjMg3-2" edge="1">
          <mxGeometry relative="1" as="geometry" />
        </mxCell>
        <mxCell id="f2Iedu3TyyTI3fCIjMg3-5" value="«interface»&lt;br&gt;List&amp;lt;E&amp;gt;" style="html=1;fillColor=#67AB9F;strokeColor=none;opacity=50;fontStyle=1;sketch=1;" parent="1" vertex="1">
          <mxGeometry x="760" y="475" width="110" height="50" as="geometry" />
        </mxCell>
        <mxCell id="f2Iedu3TyyTI3fCIjMg3-33" value="" style="edgeStyle=none;rounded=0;orthogonalLoop=1;jettySize=auto;html=1;fontStyle=1;sketch=1;fillColor=#f8cecc;strokeColor=#FF0000;" parent="1" source="f2Iedu3TyyTI3fCIjMg3-6" target="f2Iedu3TyyTI3fCIjMg3-3" edge="1">
          <mxGeometry relative="1" as="geometry" />
        </mxCell>
        <mxCell id="f2Iedu3TyyTI3fCIjMg3-6" value="«interface»&lt;br&gt;SortedSet&amp;lt;E&amp;gt;" style="html=1;fillColor=#67AB9F;strokeColor=none;opacity=50;fontStyle=1;sketch=1;" parent="1" vertex="1">
          <mxGeometry x="330" y="630" width="110" height="50" as="geometry" />
        </mxCell>
        <mxCell id="f2Iedu3TyyTI3fCIjMg3-34" value="" style="edgeStyle=none;rounded=0;orthogonalLoop=1;jettySize=auto;html=1;fontStyle=1;sketch=1;fillColor=#f8cecc;strokeColor=#FF0000;" parent="1" source="f2Iedu3TyyTI3fCIjMg3-7" target="f2Iedu3TyyTI3fCIjMg3-6" edge="1">
          <mxGeometry relative="1" as="geometry" />
        </mxCell>
        <mxCell id="f2Iedu3TyyTI3fCIjMg3-7" value="«interface»&lt;br&gt;NavigableSet&amp;lt;E&amp;gt;" style="html=1;fillColor=#67AB9F;strokeColor=none;opacity=50;fontStyle=1;sketch=1;" parent="1" vertex="1">
          <mxGeometry x="330" y="715" width="110" height="50" as="geometry" />
        </mxCell>
        <mxCell id="f2Iedu3TyyTI3fCIjMg3-32" value="" style="edgeStyle=none;rounded=0;orthogonalLoop=1;jettySize=auto;html=1;fontStyle=1;sketch=1;fillColor=#f8cecc;strokeColor=#FF0000;" parent="1" source="f2Iedu3TyyTI3fCIjMg3-8" target="f2Iedu3TyyTI3fCIjMg3-4" edge="1">
          <mxGeometry relative="1" as="geometry" />
        </mxCell>
        <mxCell id="f2Iedu3TyyTI3fCIjMg3-8" value="«interface»&lt;br&gt;Deque&amp;lt;E&amp;gt;" style="html=1;fillColor=#67AB9F;strokeColor=none;opacity=50;fontStyle=1;sketch=1;" parent="1" vertex="1">
          <mxGeometry x="560" y="630" width="110" height="50" as="geometry" />
        </mxCell>
        <mxCell id="f2Iedu3TyyTI3fCIjMg3-11" value="«class»&lt;br&gt;Object" style="html=1;fillColor=#FF8000;strokeColor=none;sketch=1;fontStyle=1" parent="1" vertex="1">
          <mxGeometry x="1540" y="75" width="110" height="50" as="geometry" />
        </mxCell>
        <mxCell id="f2Iedu3TyyTI3fCIjMg3-50" value="" style="edgeStyle=none;rounded=0;orthogonalLoop=1;jettySize=auto;html=1;entryX=0;entryY=1;entryDx=0;entryDy=0;sketch=1;strokeColor=#FF0000;" parent="1" source="f2Iedu3TyyTI3fCIjMg3-12" target="f2Iedu3TyyTI3fCIjMg3-11" edge="1">
          <mxGeometry relative="1" as="geometry">
            <mxPoint x="1105" y="395" as="targetPoint" />
          </mxGeometry>
        </mxCell>
        <mxCell id="f2Iedu3TyyTI3fCIjMg3-12" value="«class»&lt;br&gt;AbstractCollection&amp;lt;E&amp;gt;" style="html=1;strokeColor=none;fillColor=#FFCC99;sketch=1;" parent="1" vertex="1">
          <mxGeometry x="1080" y="475" width="130" height="50" as="geometry" />
        </mxCell>
        <mxCell id="f2Iedu3TyyTI3fCIjMg3-37" value="" style="edgeStyle=none;rounded=0;orthogonalLoop=1;jettySize=auto;html=1;entryX=0.25;entryY=1;entryDx=0;entryDy=0;exitX=0.5;exitY=0;exitDx=0;exitDy=0;fillColor=#FFCC99;sketch=1;strokeColor=#FF0000;" parent="1" source="f2Iedu3TyyTI3fCIjMg3-13" target="f2Iedu3TyyTI3fCIjMg3-12" edge="1">
          <mxGeometry relative="1" as="geometry">
            <mxPoint x="945" y="515" as="targetPoint" />
          </mxGeometry>
        </mxCell>
        <mxCell id="f2Iedu3TyyTI3fCIjMg3-13" value="«class»&lt;br&gt;AbstractSet&amp;lt;E&amp;gt;" style="html=1;strokeColor=none;fillColor=#FFCC99;sketch=1;" parent="1" vertex="1">
          <mxGeometry x="800" y="630" width="130" height="50" as="geometry" />
        </mxCell>
        <mxCell id="f2Iedu3TyyTI3fCIjMg3-35" value="" style="edgeStyle=none;rounded=0;orthogonalLoop=1;jettySize=auto;html=1;fillColor=#FFCC99;sketch=1;strokeColor=#FF0000;entryX=0.5;entryY=1;entryDx=0;entryDy=0;" parent="1" source="f2Iedu3TyyTI3fCIjMg3-14" target="f2Iedu3TyyTI3fCIjMg3-12" edge="1">
          <mxGeometry relative="1" as="geometry" />
        </mxCell>
        <mxCell id="f2Iedu3TyyTI3fCIjMg3-14" value="«class»&lt;br&gt;AbstractQueue&amp;lt;E&amp;gt;" style="html=1;strokeColor=none;fillColor=#FFCC99;sketch=1;" parent="1" vertex="1">
          <mxGeometry x="1030" y="630" width="130" height="50" as="geometry" />
        </mxCell>
        <mxCell id="f2Iedu3TyyTI3fCIjMg3-39" value="" style="edgeStyle=none;rounded=0;orthogonalLoop=1;jettySize=auto;html=1;entryX=0.75;entryY=1;entryDx=0;entryDy=0;exitX=0.5;exitY=0;exitDx=0;exitDy=0;fillColor=#FFCC99;sketch=1;strokeColor=#FF0000;" parent="1" source="f2Iedu3TyyTI3fCIjMg3-15" target="f2Iedu3TyyTI3fCIjMg3-12" edge="1">
          <mxGeometry relative="1" as="geometry" />
        </mxCell>
        <mxCell id="f2Iedu3TyyTI3fCIjMg3-15" value="«class»&lt;br&gt;AbstractList&amp;lt;E&amp;gt;" style="html=1;strokeColor=none;fillColor=#FFCC99;sketch=1;" parent="1" vertex="1">
          <mxGeometry x="1280" y="630" width="130" height="50" as="geometry" />
        </mxCell>
        <mxCell id="f2Iedu3TyyTI3fCIjMg3-16" value="«interface»&lt;br&gt;Map&amp;lt;K,V&amp;gt;" style="html=1;fillColor=#67AB9F;strokeColor=none;opacity=50;fontStyle=1;sketch=1;" parent="1" vertex="1">
          <mxGeometry x="1850" y="355" width="110" height="50" as="geometry" />
        </mxCell>
        <mxCell id="f2Iedu3TyyTI3fCIjMg3-40" value="" style="edgeStyle=none;rounded=0;orthogonalLoop=1;jettySize=auto;html=1;fillColor=#FFCC99;sketch=1;strokeColor=#FF0000;entryX=0;entryY=1;entryDx=0;entryDy=0;" parent="1" source="f2Iedu3TyyTI3fCIjMg3-17" target="f2Iedu3TyyTI3fCIjMg3-15" edge="1">
          <mxGeometry relative="1" as="geometry" />
        </mxCell>
        <mxCell id="f2Iedu3TyyTI3fCIjMg3-17" value="«class»&lt;br&gt;AbstractSequentialList&amp;lt;E&amp;gt;" style="html=1;strokeColor=none;fillColor=#FFCC99;sketch=1;" parent="1" vertex="1">
          <mxGeometry x="1030" y="730" width="160" height="50" as="geometry" />
        </mxCell>
        <mxCell id="f2Iedu3TyyTI3fCIjMg3-51" value="" style="edgeStyle=none;rounded=0;orthogonalLoop=1;jettySize=auto;html=1;entryX=0;entryY=1;entryDx=0;entryDy=0;sketch=1;strokeColor=#FF0000;" parent="1" source="f2Iedu3TyyTI3fCIjMg3-19" target="f2Iedu3TyyTI3fCIjMg3-13" edge="1">
          <mxGeometry relative="1" as="geometry" />
        </mxCell>
        <mxCell id="f2Iedu3TyyTI3fCIjMg3-52" value="" style="edgeStyle=none;rounded=0;orthogonalLoop=1;jettySize=auto;html=1;dashed=1;dashPattern=1 1;sketch=1;fillColor=#d5e8d4;strokeColor=#00FF00;" parent="1" source="f2Iedu3TyyTI3fCIjMg3-19" target="f2Iedu3TyyTI3fCIjMg3-7" edge="1">
          <mxGeometry relative="1" as="geometry" />
        </mxCell>
        <mxCell id="f2Iedu3TyyTI3fCIjMg3-19" value="«class»&lt;br&gt;TreeSet&amp;lt;E&amp;gt;" style="html=1;fillColor=#FF8000;strokeColor=none;sketch=1;fontStyle=1" parent="1" vertex="1">
          <mxGeometry x="330" y="833" width="110" height="50" as="geometry" />
        </mxCell>
        <mxCell id="f2Iedu3TyyTI3fCIjMg3-48" value="" style="edgeStyle=none;rounded=0;orthogonalLoop=1;jettySize=auto;html=1;entryX=0;entryY=1;entryDx=0;entryDy=0;sketch=1;strokeColor=#FF0000;" parent="1" source="f2Iedu3TyyTI3fCIjMg3-20" target="f2Iedu3TyyTI3fCIjMg3-14" edge="1">
          <mxGeometry relative="1" as="geometry">
            <mxPoint x="614.9999999999998" y="753" as="targetPoint" />
          </mxGeometry>
        </mxCell>
        <mxCell id="f2Iedu3TyyTI3fCIjMg3-54" value="" style="edgeStyle=none;rounded=0;orthogonalLoop=1;jettySize=auto;html=1;dashed=1;dashPattern=1 1;entryX=0.75;entryY=1;entryDx=0;entryDy=0;exitX=0.25;exitY=0;exitDx=0;exitDy=0;sketch=1;strokeColor=#00FF00;" parent="1" source="f2Iedu3TyyTI3fCIjMg3-22" target="f2Iedu3TyyTI3fCIjMg3-8" edge="1">
          <mxGeometry relative="1" as="geometry">
            <mxPoint x="770" y="753" as="targetPoint" />
          </mxGeometry>
        </mxCell>
        <mxCell id="f2Iedu3TyyTI3fCIjMg3-20" value="«class»&lt;br&gt;PriorityQueue&amp;lt;E&amp;gt;" style="html=1;fillColor=#FF8000;strokeColor=none;sketch=1;fontStyle=1" parent="1" vertex="1">
          <mxGeometry x="660" y="833" width="110" height="50" as="geometry" />
        </mxCell>
        <mxCell id="f2Iedu3TyyTI3fCIjMg3-41" value="" style="edgeStyle=none;rounded=0;orthogonalLoop=1;jettySize=auto;html=1;entryX=1;entryY=1;entryDx=0;entryDy=0;sketch=1;strokeColor=#FF0000;" parent="1" source="f2Iedu3TyyTI3fCIjMg3-21" target="f2Iedu3TyyTI3fCIjMg3-15" edge="1">
          <mxGeometry relative="1" as="geometry" />
        </mxCell>
        <mxCell id="f2Iedu3TyyTI3fCIjMg3-21" value="«class»&lt;br&gt;Vector&amp;lt;E&amp;gt;" style="html=1;fillColor=#FF8000;strokeColor=none;sketch=1;fontStyle=1" parent="1" vertex="1">
          <mxGeometry x="1240" y="833" width="110" height="50" as="geometry" />
        </mxCell>
        <mxCell id="f2Iedu3TyyTI3fCIjMg3-45" value="" style="edgeStyle=none;rounded=0;orthogonalLoop=1;jettySize=auto;html=1;entryX=0.25;entryY=1;entryDx=0;entryDy=0;sketch=1;strokeColor=#FF0000;" parent="1" source="f2Iedu3TyyTI3fCIjMg3-22" target="f2Iedu3TyyTI3fCIjMg3-17" edge="1">
          <mxGeometry relative="1" as="geometry">
            <mxPoint x="935" y="753" as="targetPoint" />
          </mxGeometry>
        </mxCell>
        <mxCell id="f2Iedu3TyyTI3fCIjMg3-22" value="«class»&lt;br&gt;LinkedList&amp;lt;E&amp;gt;" style="html=1;fillColor=#FF8000;strokeColor=none;sketch=1;fontStyle=1" parent="1" vertex="1">
          <mxGeometry x="880" y="833" width="110" height="50" as="geometry" />
        </mxCell>
        <mxCell id="f2Iedu3TyyTI3fCIjMg3-43" value="" style="edgeStyle=none;rounded=0;orthogonalLoop=1;jettySize=auto;html=1;entryX=0.5;entryY=1;entryDx=0;entryDy=0;sketch=1;strokeColor=#FF0000;" parent="1" source="f2Iedu3TyyTI3fCIjMg3-23" target="f2Iedu3TyyTI3fCIjMg3-15" edge="1">
          <mxGeometry relative="1" as="geometry">
            <mxPoint x="1095" y="753" as="targetPoint" />
          </mxGeometry>
        </mxCell>
        <mxCell id="f2Iedu3TyyTI3fCIjMg3-23" value="«class»&lt;br&gt;ArrayList&amp;lt;E&amp;gt;" style="html=1;fillColor=#FF8000;strokeColor=none;sketch=1;fontStyle=1" parent="1" vertex="1">
          <mxGeometry x="1090" y="833" width="110" height="50" as="geometry" />
        </mxCell>
        <mxCell id="f2Iedu3TyyTI3fCIjMg3-46" value="" style="edgeStyle=none;rounded=0;orthogonalLoop=1;jettySize=auto;html=1;entryX=0.5;entryY=1;entryDx=0;entryDy=0;sketch=1;fontStyle=1;strokeColor=#FF0000;" parent="1" source="f2Iedu3TyyTI3fCIjMg3-25" target="f2Iedu3TyyTI3fCIjMg3-21" edge="1">
          <mxGeometry relative="1" as="geometry" />
        </mxCell>
        <mxCell id="f2Iedu3TyyTI3fCIjMg3-25" value="«class»&lt;br&gt;Stack&amp;lt;E&amp;gt;" style="html=1;fillColor=#FF8000;strokeColor=none;sketch=1;fontStyle=1" parent="1" vertex="1">
          <mxGeometry x="1240" y="955" width="110" height="50" as="geometry" />
        </mxCell>
        <mxCell id="f2Iedu3TyyTI3fCIjMg3-57" value="" style="edgeStyle=none;rounded=0;orthogonalLoop=1;jettySize=auto;html=1;dashed=1;dashPattern=1 1;entryX=1;entryY=1;entryDx=0;entryDy=0;exitX=0.25;exitY=0;exitDx=0;exitDy=0;sketch=1;strokeColor=#00FF00;" parent="1" source="f2Iedu3TyyTI3fCIjMg3-13" target="f2Iedu3TyyTI3fCIjMg3-3" edge="1">
          <mxGeometry relative="1" as="geometry">
            <mxPoint x="917.5" y="843" as="sourcePoint" />
            <mxPoint x="652.5" y="655" as="targetPoint" />
          </mxGeometry>
        </mxCell>
        <mxCell id="f2Iedu3TyyTI3fCIjMg3-58" value="" style="edgeStyle=none;rounded=0;orthogonalLoop=1;jettySize=auto;html=1;dashed=1;dashPattern=1 1;entryX=1;entryY=1;entryDx=0;entryDy=0;exitX=0.25;exitY=0;exitDx=0;exitDy=0;sketch=1;strokeColor=#00FF00;" parent="1" source="f2Iedu3TyyTI3fCIjMg3-14" target="f2Iedu3TyyTI3fCIjMg3-4" edge="1">
          <mxGeometry relative="1" as="geometry">
            <mxPoint x="922.5" y="605" as="sourcePoint" />
            <mxPoint x="502.5" y="535" as="targetPoint" />
          </mxGeometry>
        </mxCell>
        <mxCell id="f2Iedu3TyyTI3fCIjMg3-59" value="" style="edgeStyle=none;rounded=0;orthogonalLoop=1;jettySize=auto;html=1;dashed=1;dashPattern=1 1;entryX=1;entryY=1;entryDx=0;entryDy=0;exitX=0.25;exitY=0;exitDx=0;exitDy=0;sketch=1;strokeColor=#00FF00;" parent="1" source="f2Iedu3TyyTI3fCIjMg3-15" target="f2Iedu3TyyTI3fCIjMg3-5" edge="1">
          <mxGeometry relative="1" as="geometry">
            <mxPoint x="1082.5" y="605" as="sourcePoint" />
            <mxPoint x="652.5" y="535" as="targetPoint" />
          </mxGeometry>
        </mxCell>
        <mxCell id="f2Iedu3TyyTI3fCIjMg3-60" value="" style="edgeStyle=none;rounded=0;orthogonalLoop=1;jettySize=auto;html=1;dashed=1;dashPattern=1 1;entryX=1;entryY=0.75;entryDx=0;entryDy=0;exitX=0.25;exitY=0;exitDx=0;exitDy=0;sketch=1;strokeColor=#00FF00;" parent="1" source="f2Iedu3TyyTI3fCIjMg3-12" target="f2Iedu3TyyTI3fCIjMg3-2" edge="1">
          <mxGeometry relative="1" as="geometry">
            <mxPoint x="1242.5" y="605" as="sourcePoint" />
            <mxPoint x="812.5" y="535" as="targetPoint" />
          </mxGeometry>
        </mxCell>
        <mxCell id="f2Iedu3TyyTI3fCIjMg3-72" value="" style="rounded=0;orthogonalLoop=1;jettySize=auto;html=1;fontStyle=1;sketch=1;strokeColor=#FF0000;" parent="1" source="f2Iedu3TyyTI3fCIjMg3-64" target="f2Iedu3TyyTI3fCIjMg3-16" edge="1">
          <mxGeometry relative="1" as="geometry" />
        </mxCell>
        <mxCell id="f2Iedu3TyyTI3fCIjMg3-64" value="«interface»&lt;br&gt;SortedMap&amp;lt;K,V&amp;gt;" style="html=1;fillColor=#67AB9F;strokeColor=none;opacity=50;fontStyle=1;sketch=1;" parent="1" vertex="1">
          <mxGeometry x="1850" y="475" width="110" height="50" as="geometry" />
        </mxCell>
        <mxCell id="f2Iedu3TyyTI3fCIjMg3-75" value="" style="edgeStyle=none;rounded=0;orthogonalLoop=1;jettySize=auto;html=1;fontStyle=1;sketch=1;strokeColor=#FF0000;" parent="1" source="f2Iedu3TyyTI3fCIjMg3-65" target="f2Iedu3TyyTI3fCIjMg3-64" edge="1">
          <mxGeometry relative="1" as="geometry" />
        </mxCell>
        <mxCell id="f2Iedu3TyyTI3fCIjMg3-65" value="«interface»&lt;br&gt;NavigableMap&amp;lt;K,V&amp;gt;" style="html=1;fillColor=#67AB9F;strokeColor=none;opacity=50;fontStyle=1;sketch=1;" parent="1" vertex="1">
          <mxGeometry x="1850" y="635" width="110" height="50" as="geometry" />
        </mxCell>
        <mxCell id="f2Iedu3TyyTI3fCIjMg3-74" value="" style="edgeStyle=none;rounded=0;orthogonalLoop=1;jettySize=auto;html=1;sketch=1;strokeColor=#FF0000;" parent="1" source="f2Iedu3TyyTI3fCIjMg3-67" target="f2Iedu3TyyTI3fCIjMg3-68" edge="1">
          <mxGeometry relative="1" as="geometry">
            <mxPoint x="1705" y="635" as="targetPoint" />
          </mxGeometry>
        </mxCell>
        <mxCell id="f2Iedu3TyyTI3fCIjMg3-67" value="«class»&lt;br&gt;HashMap&amp;lt;K,V&amp;gt;" style="html=1;fillColor=#FF8000;strokeColor=none;sketch=1;fontStyle=1" parent="1" vertex="1">
          <mxGeometry x="1630" y="837" width="110" height="50" as="geometry" />
        </mxCell>
        <mxCell id="f2Iedu3TyyTI3fCIjMg3-71" value="" style="edgeStyle=none;rounded=0;orthogonalLoop=1;jettySize=auto;html=1;dashed=1;dashPattern=1 1;entryX=0.25;entryY=1;entryDx=0;entryDy=0;sketch=1;strokeColor=#00FF00;" parent="1" source="f2Iedu3TyyTI3fCIjMg3-68" target="f2Iedu3TyyTI3fCIjMg3-16" edge="1">
          <mxGeometry relative="1" as="geometry">
            <mxPoint x="1715" y="395" as="targetPoint" />
          </mxGeometry>
        </mxCell>
        <mxCell id="f2Iedu3TyyTI3fCIjMg3-68" value="«class»&lt;br&gt;AbstractMap&amp;lt;K,V&amp;gt;" style="html=1;strokeColor=none;fillColor=#FFCC99;sketch=1;" parent="1" vertex="1">
          <mxGeometry x="1620" y="475" width="130" height="50" as="geometry" />
        </mxCell>
        <mxCell id="f2Iedu3TyyTI3fCIjMg3-69" value="«class»&lt;br&gt;TreeMap&amp;lt;K,V&amp;gt;" style="html=1;fillColor=#FF8000;strokeColor=none;sketch=1;fontStyle=1" parent="1" vertex="1">
          <mxGeometry x="1850" y="837" width="110" height="50" as="geometry" />
        </mxCell>
        <mxCell id="f2Iedu3TyyTI3fCIjMg3-76" value="" style="edgeStyle=none;rounded=0;orthogonalLoop=1;jettySize=auto;html=1;dashed=1;dashPattern=1 1;sketch=1;strokeColor=#00FF00;" parent="1" source="f2Iedu3TyyTI3fCIjMg3-69" target="f2Iedu3TyyTI3fCIjMg3-65" edge="1">
          <mxGeometry relative="1" as="geometry">
            <mxPoint x="1767.7631578947367" y="485" as="sourcePoint" />
            <mxPoint x="1887.5" y="415" as="targetPoint" />
          </mxGeometry>
        </mxCell>
        <mxCell id="f2Iedu3TyyTI3fCIjMg3-77" value="" style="edgeStyle=none;rounded=0;orthogonalLoop=1;jettySize=auto;html=1;entryX=0.75;entryY=1;entryDx=0;entryDy=0;exitX=0.25;exitY=0;exitDx=0;exitDy=0;sketch=1;strokeColor=#FF0000;" parent="1" source="f2Iedu3TyyTI3fCIjMg3-69" target="f2Iedu3TyyTI3fCIjMg3-68" edge="1">
          <mxGeometry relative="1" as="geometry">
            <mxPoint x="1725" y="725" as="sourcePoint" />
            <mxPoint x="1725" y="535" as="targetPoint" />
          </mxGeometry>
        </mxCell>
        <mxCell id="f2Iedu3TyyTI3fCIjMg3-78" value="" style="edgeStyle=none;rounded=0;orthogonalLoop=1;jettySize=auto;html=1;entryX=0.75;entryY=1;entryDx=0;entryDy=0;exitX=0.25;exitY=0;exitDx=0;exitDy=0;sketch=1;strokeColor=#FF0000;" parent="1" source="f2Iedu3TyyTI3fCIjMg3-68" target="f2Iedu3TyyTI3fCIjMg3-11" edge="1">
          <mxGeometry relative="1" as="geometry">
            <mxPoint x="1115" y="485" as="sourcePoint" />
            <mxPoint x="1115" y="295" as="targetPoint" />
          </mxGeometry>
        </mxCell>
        <mxCell id="f2Iedu3TyyTI3fCIjMg3-83" value="" style="edgeStyle=none;rounded=0;orthogonalLoop=1;jettySize=auto;html=1;entryX=0.5;entryY=1;entryDx=0;entryDy=0;sketch=1;strokeColor=#FF0000;" parent="1" source="f2Iedu3TyyTI3fCIjMg3-80" target="f2Iedu3TyyTI3fCIjMg3-81" edge="1">
          <mxGeometry relative="1" as="geometry">
            <mxPoint x="2185" y="635" as="targetPoint" />
          </mxGeometry>
        </mxCell>
        <mxCell id="f2Iedu3TyyTI3fCIjMg3-80" value="«class»&lt;br&gt;HashTable&amp;lt;K,V&amp;gt;" style="html=1;fillColor=#FF8000;strokeColor=none;sketch=1;fontStyle=1" parent="1" vertex="1">
          <mxGeometry x="1420" y="837" width="110" height="50" as="geometry" />
        </mxCell>
        <mxCell id="f2Iedu3TyyTI3fCIjMg3-85" value="" style="edgeStyle=none;rounded=0;orthogonalLoop=1;jettySize=auto;html=1;entryX=0.25;entryY=1;entryDx=0;entryDy=0;sketch=1;strokeColor=#FF0000;" parent="1" source="f2Iedu3TyyTI3fCIjMg3-81" target="f2Iedu3TyyTI3fCIjMg3-11" edge="1">
          <mxGeometry relative="1" as="geometry" />
        </mxCell>
        <mxCell id="f2Iedu3TyyTI3fCIjMg3-81" value="«class»&lt;br&gt;Dictionary&amp;lt;K,V&amp;gt;" style="html=1;strokeColor=none;fillColor=#FFCC99;sketch=1;" parent="1" vertex="1">
          <mxGeometry x="1410" y="475" width="130" height="50" as="geometry" />
        </mxCell>
        <mxCell id="f2Iedu3TyyTI3fCIjMg3-86" value="" style="edgeStyle=orthogonalEdgeStyle;rounded=0;orthogonalLoop=1;jettySize=auto;html=1;dashed=1;dashPattern=1 1;entryX=0;entryY=0.5;entryDx=0;entryDy=0;exitX=1;exitY=0.25;exitDx=0;exitDy=0;curved=1;sketch=1;strokeColor=#00FF00;" parent="1" source="f2Iedu3TyyTI3fCIjMg3-80" target="f2Iedu3TyyTI3fCIjMg3-16" edge="1">
          <mxGeometry relative="1" as="geometry">
            <mxPoint x="1767.3177083333335" y="486" as="sourcePoint" />
            <mxPoint x="1887.5" y="415" as="targetPoint" />
            <Array as="points">
              <mxPoint x="1530" y="380" />
            </Array>
          </mxGeometry>
        </mxCell>
        <mxCell id="f2Iedu3TyyTI3fCIjMg3-88" value="" style="edgeStyle=orthogonalEdgeStyle;curved=1;rounded=0;orthogonalLoop=1;jettySize=auto;html=1;sketch=1;fontStyle=1;strokeColor=#FF0000;" parent="1" source="f2Iedu3TyyTI3fCIjMg3-87" target="f2Iedu3TyyTI3fCIjMg3-80" edge="1">
          <mxGeometry relative="1" as="geometry" />
        </mxCell>
        <mxCell id="f2Iedu3TyyTI3fCIjMg3-87" value="«class»&lt;br&gt;Properties&amp;lt;K,V&amp;gt;" style="html=1;fillColor=#FF8000;strokeColor=none;sketch=1;fontStyle=1" parent="1" vertex="1">
          <mxGeometry x="1420" y="955" width="110" height="50" as="geometry" />
        </mxCell>
        <mxCell id="f2Iedu3TyyTI3fCIjMg3-93" value="" style="rounded=0;orthogonalLoop=1;jettySize=auto;html=1;fillColor=#FFCC99;entryX=1;entryY=1;entryDx=0;entryDy=0;exitX=0.5;exitY=0;exitDx=0;exitDy=0;sketch=1;strokeColor=#FF0000;" parent="1" source="f2Iedu3TyyTI3fCIjMg3-90" target="f2Iedu3TyyTI3fCIjMg3-11" edge="1">
          <mxGeometry relative="1" as="geometry">
            <mxPoint x="1840" y="255" as="targetPoint" />
          </mxGeometry>
        </mxCell>
        <mxCell id="f2Iedu3TyyTI3fCIjMg3-90" value="«class»&lt;br&gt;Collections" style="html=1;fillColor=#FF8000;strokeColor=none;sketch=1;fontStyle=1" parent="1" vertex="1">
          <mxGeometry x="2060" y="355" width="110" height="50" as="geometry" />
        </mxCell>
        <mxCell id="f2Iedu3TyyTI3fCIjMg3-95" value="«interface»&lt;br&gt;Comparator&amp;lt;T&amp;gt;" style="html=1;fillColor=#67AB9F;strokeColor=none;opacity=50;fontStyle=1;sketch=1;" parent="1" vertex="1">
          <mxGeometry x="2250" y="355" width="110" height="50" as="geometry" />
        </mxCell>
        <mxCell id="jRjDFQkdqReyLutBnnCA-1" value="«interface»&lt;br&gt;Iterator&amp;lt;E&amp;gt;" style="html=1;fillColor=#67AB9F;strokeColor=none;opacity=50;fontStyle=1;sketch=1;" parent="1" vertex="1">
          <mxGeometry x="100" y="355" width="110" height="50" as="geometry" />
        </mxCell>
        <mxCell id="Ks9ShcCLQltz6Wq35oGR-1" value="&lt;div&gt;&lt;br&gt;&lt;/div&gt;&lt;dl style=&quot;color: rgb(53 , 56 , 51) ; font-family: &amp;#34;dejavu sans&amp;#34; , &amp;#34;arial&amp;#34; , &amp;#34;helvetica&amp;#34; , sans-serif ; font-size: 14px ; background-color: rgb(255 , 255 , 255)&quot;&gt;&lt;/dl&gt;" style="text;html=1;align=center;verticalAlign=middle;resizable=0;points=[];autosize=1;" vertex="1" parent="1">
          <mxGeometry x="1150" y="100" width="20" height="30" as="geometry" />
        </mxCell>
        <mxCell id="Ks9ShcCLQltz6Wq35oGR-2" value="&lt;div class=&quot;block&quot; style=&quot;margin: 0px 10px 5px 0px ; color: rgb(71 , 71 , 71) ; font-size: 14px ; font-family: &amp;#34;dejavu serif&amp;#34; , &amp;#34;georgia&amp;#34; , &amp;#34;times new roman&amp;#34; , &amp;#34;times&amp;#34; , serif ; background-color: rgb(255 , 255 , 255)&quot;&gt;Implementing this interface allows an object to be the target of the enhanced&amp;nbsp;&lt;code style=&quot;font-family: &amp;#34;dejavu sans mono&amp;#34; , monospace ; padding-top: 4px ; margin-top: 8px ; line-height: 1.4em&quot;&gt;for&lt;/code&gt;&amp;nbsp;statement (sometimes called the &quot;for-each loop&quot; statement).&amp;nbsp;&lt;/div&gt;&lt;span style=&quot;color: rgb(53 , 56 , 51) ; font-family: &amp;#34;dejavu serif&amp;#34; , &amp;#34;georgia&amp;#34; , &amp;#34;times new roman&amp;#34; , &amp;#34;times&amp;#34; , serif ; font-size: 14px ; background-color: rgb(255 , 255 , 255)&quot;&gt;T is the type of elements returned by the iterator&lt;/span&gt;" style="text;html=1;strokeColor=none;fillColor=none;align=center;verticalAlign=middle;whiteSpace=wrap;rounded=0;sketch=0;" vertex="1" parent="1">
          <mxGeometry x="680" y="25" width="225" height="130" as="geometry" />
        </mxCell>
        <mxCell id="Ks9ShcCLQltz6Wq35oGR-4" value="&lt;span style=&quot;color: rgb(71 , 71 , 71) ; font-family: &amp;#34;dejavu serif&amp;#34; , &amp;#34;georgia&amp;#34; , &amp;#34;times new roman&amp;#34; , &amp;#34;times&amp;#34; , serif ; font-size: 14px ; background-color: rgb(255 , 255 , 255)&quot;&gt;The root interface in the&amp;nbsp;&lt;/span&gt;&lt;i style=&quot;color: rgb(71 , 71 , 71) ; font-family: &amp;#34;dejavu serif&amp;#34; , &amp;#34;georgia&amp;#34; , &amp;#34;times new roman&amp;#34; , &amp;#34;times&amp;#34; , serif ; font-size: 14px ; background-color: rgb(255 , 255 , 255)&quot;&gt;collection hierarchy&lt;/i&gt;&lt;span style=&quot;color: rgb(71 , 71 , 71) ; font-family: &amp;#34;dejavu serif&amp;#34; , &amp;#34;georgia&amp;#34; , &amp;#34;times new roman&amp;#34; , &amp;#34;times&amp;#34; , serif ; font-size: 14px ; background-color: rgb(255 , 255 , 255)&quot;&gt;. A collection represents a group of objects, known as its&amp;nbsp;&lt;/span&gt;&lt;i style=&quot;color: rgb(71 , 71 , 71) ; font-family: &amp;#34;dejavu serif&amp;#34; , &amp;#34;georgia&amp;#34; , &amp;#34;times new roman&amp;#34; , &amp;#34;times&amp;#34; , serif ; font-size: 14px ; background-color: rgb(255 , 255 , 255)&quot;&gt;elements&lt;/i&gt;&lt;span style=&quot;color: rgb(71 , 71 , 71) ; font-family: &amp;#34;dejavu serif&amp;#34; , &amp;#34;georgia&amp;#34; , &amp;#34;times new roman&amp;#34; , &amp;#34;times&amp;#34; , serif ; font-size: 14px ; background-color: rgb(255 , 255 , 255)&quot;&gt;. Some collections allow duplicate elements and others do not. Some are ordered and others unordered.&amp;nbsp;&lt;/span&gt;" style="text;html=1;strokeColor=none;fillColor=none;align=center;verticalAlign=middle;whiteSpace=wrap;rounded=0;sketch=0;" vertex="1" parent="1">
          <mxGeometry x="620" y="289" width="320" height="72" as="geometry" />
        </mxCell>
        <mxCell id="Ks9ShcCLQltz6Wq35oGR-6" value="&lt;span style=&quot;color: rgb(71 , 71 , 71) ; font-family: &amp;quot;dejavu serif&amp;quot; , &amp;quot;georgia&amp;quot; , &amp;quot;times new roman&amp;quot; , &amp;quot;times&amp;quot; , serif ; font-size: 14px ; background-color: rgb(255 , 255 , 255)&quot;&gt;A collection that contains &lt;br&gt;no duplicate elements.&amp;nbsp;&lt;/span&gt;" style="text;html=1;align=right;verticalAlign=middle;resizable=0;points=[];autosize=1;" vertex="1" parent="1">
          <mxGeometry x="150" y="485" width="170" height="30" as="geometry" />
        </mxCell>
        <mxCell id="Ks9ShcCLQltz6Wq35oGR-7" value="&lt;span style=&quot;color: rgb(71 , 71 , 71) ; font-family: &amp;quot;dejavu serif&amp;quot; , &amp;quot;georgia&amp;quot; , &amp;quot;times new roman&amp;quot; , &amp;quot;times&amp;quot; , serif ; font-size: 14px ; background-color: rgb(255 , 255 , 255)&quot;&gt;A&amp;nbsp;&lt;/span&gt;&lt;a href=&quot;https://docs.oracle.com/en/java/javase/14/docs/api/java.base/java/util/Set.html&quot; title=&quot;interface in java.util&quot; style=&quot;color: rgb(74 , 103 , 130) ; font-family: &amp;quot;dejavu serif&amp;quot; , &amp;quot;georgia&amp;quot; , &amp;quot;times new roman&amp;quot; , &amp;quot;times&amp;quot; , serif ; font-size: 14px ; background-color: rgb(255 , 255 , 255)&quot;&gt;&lt;code style=&quot;font-family: &amp;quot;dejavu sans mono&amp;quot; , monospace ; padding-top: 4px ; margin-top: 8px ; line-height: 1.4em&quot;&gt;Set&lt;/code&gt;&lt;/a&gt;&lt;span style=&quot;color: rgb(71 , 71 , 71) ; font-family: &amp;quot;dejavu serif&amp;quot; , &amp;quot;georgia&amp;quot; , &amp;quot;times new roman&amp;quot; , &amp;quot;times&amp;quot; , serif ; font-size: 14px ; background-color: rgb(255 , 255 , 255)&quot;&gt;&amp;nbsp;that further provides &lt;br&gt;a&amp;nbsp;&lt;/span&gt;&lt;i style=&quot;color: rgb(71 , 71 , 71) ; font-family: &amp;quot;dejavu serif&amp;quot; , &amp;quot;georgia&amp;quot; , &amp;quot;times new roman&amp;quot; , &amp;quot;times&amp;quot; , serif ; font-size: 14px ; background-color: rgb(255 , 255 , 255)&quot;&gt;total ordering&lt;/i&gt;&lt;span style=&quot;color: rgb(71 , 71 , 71) ; font-family: &amp;quot;dejavu serif&amp;quot; , &amp;quot;georgia&amp;quot; , &amp;quot;times new roman&amp;quot; , &amp;quot;times&amp;quot; , serif ; font-size: 14px ; background-color: rgb(255 , 255 , 255)&quot;&gt;&amp;nbsp;on its elements.&lt;/span&gt;" style="text;html=1;align=right;verticalAlign=middle;resizable=0;points=[];autosize=1;" vertex="1" parent="1">
          <mxGeometry x="110" y="640" width="210" height="40" as="geometry" />
        </mxCell>
        <mxCell id="Ks9ShcCLQltz6Wq35oGR-8" value="&lt;span style=&quot;color: rgb(71 , 71 , 71) ; font-family: &amp;quot;dejavu serif&amp;quot; , &amp;quot;georgia&amp;quot; , &amp;quot;times new roman&amp;quot; , &amp;quot;times&amp;quot; , serif ; font-size: 14px ; background-color: rgb(255 , 255 , 255)&quot;&gt;A&amp;nbsp;&lt;/span&gt;&lt;a href=&quot;https://docs.oracle.com/en/java/javase/14/docs/api/java.base/java/util/SortedSet.html&quot; title=&quot;interface in java.util&quot; style=&quot;color: rgb(74 , 103 , 130) ; font-family: &amp;quot;dejavu serif&amp;quot; , &amp;quot;georgia&amp;quot; , &amp;quot;times new roman&amp;quot; , &amp;quot;times&amp;quot; , serif ; font-size: 14px ; background-color: rgb(255 , 255 , 255)&quot;&gt;&lt;code style=&quot;font-family: &amp;quot;dejavu sans mono&amp;quot; , monospace ; padding-top: 4px ; margin-top: 8px ; line-height: 1.4em&quot;&gt;SortedSet&lt;/code&gt;&lt;/a&gt;&lt;span style=&quot;color: rgb(71 , 71 , 71) ; font-family: &amp;quot;dejavu serif&amp;quot; , &amp;quot;georgia&amp;quot; , &amp;quot;times new roman&amp;quot; , &amp;quot;times&amp;quot; , serif ; font-size: 14px ; background-color: rgb(255 , 255 , 255)&quot;&gt;&amp;nbsp;extended with &lt;br&gt;navigation methods reporting &lt;br&gt;closest matches for given search targets.&lt;/span&gt;" style="text;html=1;align=right;verticalAlign=middle;resizable=0;points=[];autosize=1;" vertex="1" parent="1">
          <mxGeometry x="70" y="715" width="260" height="50" as="geometry" />
        </mxCell>
        <mxCell id="Ks9ShcCLQltz6Wq35oGR-9" value="&lt;span style=&quot;color: rgb(71 , 71 , 71) ; font-family: &amp;quot;dejavu serif&amp;quot; , &amp;quot;georgia&amp;quot; , &amp;quot;times new roman&amp;quot; , &amp;quot;times&amp;quot; , serif ; font-size: 14px ; background-color: rgb(255 , 255 , 255)&quot;&gt;A&amp;nbsp;&lt;/span&gt;&lt;a href=&quot;https://docs.oracle.com/en/java/javase/14/docs/api/java.base/java/util/NavigableSet.html&quot; title=&quot;interface in java.util&quot; style=&quot;color: rgb(74 , 103 , 130) ; font-family: &amp;quot;dejavu serif&amp;quot; , &amp;quot;georgia&amp;quot; , &amp;quot;times new roman&amp;quot; , &amp;quot;times&amp;quot; , serif ; font-size: 14px ; background-color: rgb(255 , 255 , 255)&quot;&gt;&lt;code style=&quot;font-family: &amp;quot;dejavu sans mono&amp;quot; , monospace ; padding-top: 4px ; margin-top: 8px ; line-height: 1.4em&quot;&gt;NavigableSet&lt;/code&gt;&lt;/a&gt;&lt;span style=&quot;color: rgb(71 , 71 , 71) ; font-family: &amp;quot;dejavu serif&amp;quot; , &amp;quot;georgia&amp;quot; , &amp;quot;times new roman&amp;quot; , &amp;quot;times&amp;quot; , serif ; font-size: 14px ; background-color: rgb(255 , 255 , 255)&quot;&gt;&amp;nbsp;implementation &lt;br&gt;based on a&amp;nbsp;&lt;/span&gt;&lt;a href=&quot;https://docs.oracle.com/en/java/javase/14/docs/api/java.base/java/util/TreeMap.html&quot; title=&quot;class in java.util&quot; style=&quot;color: rgb(74 , 103 , 130) ; font-family: &amp;quot;dejavu serif&amp;quot; , &amp;quot;georgia&amp;quot; , &amp;quot;times new roman&amp;quot; , &amp;quot;times&amp;quot; , serif ; font-size: 14px ; background-color: rgb(255 , 255 , 255)&quot;&gt;&lt;code style=&quot;font-family: &amp;quot;dejavu sans mono&amp;quot; , monospace ; padding-top: 4px ; margin-top: 8px ; line-height: 1.4em&quot;&gt;TreeMap&lt;/code&gt;&lt;/a&gt;&lt;span style=&quot;color: rgb(71 , 71 , 71) ; font-family: &amp;quot;dejavu serif&amp;quot; , &amp;quot;georgia&amp;quot; , &amp;quot;times new roman&amp;quot; , &amp;quot;times&amp;quot; , serif ; font-size: 14px ; background-color: rgb(255 , 255 , 255)&quot;&gt;.&lt;/span&gt;" style="text;html=1;align=right;verticalAlign=middle;resizable=0;points=[];autosize=1;" vertex="1" parent="1">
          <mxGeometry x="85" y="838" width="230" height="40" as="geometry" />
        </mxCell>
        <mxCell id="Ks9ShcCLQltz6Wq35oGR-10" value="&lt;span style=&quot;color: rgb(71 , 71 , 71) ; font-family: &amp;#34;dejavu serif&amp;#34; , &amp;#34;georgia&amp;#34; , &amp;#34;times new roman&amp;#34; , &amp;#34;times&amp;#34; , serif ; font-size: 14px ; background-color: rgb(255 , 255 , 255)&quot;&gt;A collection designed &lt;br&gt;for holding elements prior to processing.&lt;/span&gt;" style="text;html=1;align=center;verticalAlign=middle;resizable=0;points=[];autosize=1;" vertex="1" parent="1">
          <mxGeometry x="470" y="445" width="270" height="30" as="geometry" />
        </mxCell>
        <mxCell id="Ks9ShcCLQltz6Wq35oGR-11" value="&lt;span style=&quot;color: rgb(71 , 71 , 71) ; font-family: &amp;#34;dejavu serif&amp;#34; , &amp;#34;georgia&amp;#34; , &amp;#34;times new roman&amp;#34; , &amp;#34;times&amp;#34; , serif ; font-size: 14px ; background-color: rgb(255 , 255 , 255)&quot;&gt;A linear collection &lt;br&gt;that supports &lt;br&gt;element insertion and removal at both ends.&lt;/span&gt;" style="text;html=1;align=center;verticalAlign=middle;resizable=0;points=[];autosize=1;" vertex="1" parent="1">
          <mxGeometry x="450" y="580" width="290" height="50" as="geometry" />
        </mxCell>
        <mxCell id="Ks9ShcCLQltz6Wq35oGR-12" value="&lt;span style=&quot;color: rgb(71 , 71 , 71) ; font-family: &amp;#34;dejavu serif&amp;#34; , &amp;#34;georgia&amp;#34; , &amp;#34;times new roman&amp;#34; , &amp;#34;times&amp;#34; , serif ; font-size: 14px ; background-color: rgb(255 , 255 , 255)&quot;&gt;Doubly-linked list implementation &lt;br&gt;of the&amp;nbsp;&lt;/span&gt;&lt;code style=&quot;font-family: &amp;#34;dejavu sans mono&amp;#34; , monospace ; font-size: 14px ; padding-top: 4px ; margin-top: 8px ; line-height: 1.4em ; color: rgb(71 , 71 , 71) ; background-color: rgb(255 , 255 , 255)&quot;&gt;List&lt;/code&gt;&lt;span style=&quot;color: rgb(71 , 71 , 71) ; font-family: &amp;#34;dejavu serif&amp;#34; , &amp;#34;georgia&amp;#34; , &amp;#34;times new roman&amp;#34; , &amp;#34;times&amp;#34; , serif ; font-size: 14px ; background-color: rgb(255 , 255 , 255)&quot;&gt;&amp;nbsp;and&amp;nbsp;&lt;/span&gt;&lt;code style=&quot;font-family: &amp;#34;dejavu sans mono&amp;#34; , monospace ; font-size: 14px ; padding-top: 4px ; margin-top: 8px ; line-height: 1.4em ; color: rgb(71 , 71 , 71) ; background-color: rgb(255 , 255 , 255)&quot;&gt;Deque&lt;/code&gt;&lt;span style=&quot;color: rgb(71 , 71 , 71) ; font-family: &amp;#34;dejavu serif&amp;#34; , &amp;#34;georgia&amp;#34; , &amp;#34;times new roman&amp;#34; , &amp;#34;times&amp;#34; , serif ; font-size: 14px ; background-color: rgb(255 , 255 , 255)&quot;&gt;&amp;nbsp;interfaces. &lt;br&gt;Implements all optional list operations, &lt;br&gt;and permits all elements (including&amp;nbsp;&lt;/span&gt;&lt;code style=&quot;font-family: &amp;#34;dejavu sans mono&amp;#34; , monospace ; font-size: 14px ; padding-top: 4px ; margin-top: 8px ; line-height: 1.4em ; color: rgb(71 , 71 , 71) ; background-color: rgb(255 , 255 , 255)&quot;&gt;null&lt;/code&gt;&lt;span style=&quot;color: rgb(71 , 71 , 71) ; font-family: &amp;#34;dejavu serif&amp;#34; , &amp;#34;georgia&amp;#34; , &amp;#34;times new roman&amp;#34; , &amp;#34;times&amp;#34; , serif ; font-size: 14px ; background-color: rgb(255 , 255 , 255)&quot;&gt;).&lt;/span&gt;" style="text;html=1;align=center;verticalAlign=middle;resizable=0;points=[];autosize=1;" vertex="1" parent="1">
          <mxGeometry x="810" y="900" width="280" height="70" as="geometry" />
        </mxCell>
        <mxCell id="Ks9ShcCLQltz6Wq35oGR-13" value="&lt;span style=&quot;color: rgb(71 , 71 , 71) ; font-family: &amp;#34;dejavu serif&amp;#34; , &amp;#34;georgia&amp;#34; , &amp;#34;times new roman&amp;#34; , &amp;#34;times&amp;#34; , serif ; font-size: 14px ; background-color: rgb(255 , 255 , 255)&quot;&gt;An ordered collection &lt;br&gt;(also known as a&amp;nbsp;&lt;/span&gt;&lt;i style=&quot;color: rgb(71 , 71 , 71) ; font-family: &amp;#34;dejavu serif&amp;#34; , &amp;#34;georgia&amp;#34; , &amp;#34;times new roman&amp;#34; , &amp;#34;times&amp;#34; , serif ; font-size: 14px ; background-color: rgb(255 , 255 , 255)&quot;&gt;sequence&lt;/i&gt;&lt;span style=&quot;color: rgb(71 , 71 , 71) ; font-family: &amp;#34;dejavu serif&amp;#34; , &amp;#34;georgia&amp;#34; , &amp;#34;times new roman&amp;#34; , &amp;#34;times&amp;#34; , serif ; font-size: 14px ; background-color: rgb(255 , 255 , 255)&quot;&gt;). &lt;br&gt;&lt;/span&gt;" style="text;html=1;align=center;verticalAlign=middle;resizable=0;points=[];autosize=1;" vertex="1" parent="1">
          <mxGeometry x="740" y="445" width="190" height="30" as="geometry" />
        </mxCell>
        <mxCell id="Ks9ShcCLQltz6Wq35oGR-14" value="&lt;span style=&quot;color: rgb(71 , 71 , 71) ; font-family: &amp;#34;dejavu serif&amp;#34; , &amp;#34;georgia&amp;#34; , &amp;#34;times new roman&amp;#34; , &amp;#34;times&amp;#34; , serif ; font-size: 14px ; background-color: rgb(255 , 255 , 255)&quot;&gt;An unbounded priority&amp;nbsp;&lt;/span&gt;&lt;a href=&quot;https://docs.oracle.com/en/java/javase/14/docs/api/java.base/java/util/Queue.html&quot; title=&quot;interface in java.util&quot; style=&quot;color: rgb(74 , 103 , 130) ; font-family: &amp;#34;dejavu serif&amp;#34; , &amp;#34;georgia&amp;#34; , &amp;#34;times new roman&amp;#34; , &amp;#34;times&amp;#34; , serif ; font-size: 14px ; background-color: rgb(255 , 255 , 255)&quot;&gt;queue&lt;/a&gt;&lt;span style=&quot;color: rgb(71 , 71 , 71) ; font-family: &amp;#34;dejavu serif&amp;#34; , &amp;#34;georgia&amp;#34; , &amp;#34;times new roman&amp;#34; , &amp;#34;times&amp;#34; , serif ; font-size: 14px ; background-color: rgb(255 , 255 , 255)&quot;&gt;&amp;nbsp;&lt;br&gt;based on a priority heap.&lt;/span&gt;" style="text;html=1;align=center;verticalAlign=middle;resizable=0;points=[];autosize=1;" vertex="1" parent="1">
          <mxGeometry x="615" y="900" width="200" height="30" as="geometry" />
        </mxCell>
        <mxCell id="Ks9ShcCLQltz6Wq35oGR-15" value="&lt;span style=&quot;color: rgb(71 , 71 , 71) ; font-family: &amp;#34;dejavu serif&amp;#34; , &amp;#34;georgia&amp;#34; , &amp;#34;times new roman&amp;#34; , &amp;#34;times&amp;#34; , serif ; font-size: 14px ; background-color: rgb(255 , 255 , 255)&quot;&gt;This class provides &lt;br&gt;skeletal implementations &lt;br&gt;of some&amp;nbsp;&lt;/span&gt;&lt;a href=&quot;https://docs.oracle.com/en/java/javase/14/docs/api/java.base/java/util/Queue.html&quot; title=&quot;interface in java.util&quot; style=&quot;color: rgb(74 , 103 , 130) ; font-family: &amp;#34;dejavu serif&amp;#34; , &amp;#34;georgia&amp;#34; , &amp;#34;times new roman&amp;#34; , &amp;#34;times&amp;#34; , serif ; font-size: 14px ; background-color: rgb(255 , 255 , 255)&quot;&gt;&lt;code style=&quot;font-family: &amp;#34;dejavu sans mono&amp;#34; , monospace ; padding-top: 4px ; margin-top: 8px ; line-height: 1.4em&quot;&gt;Queue&lt;/code&gt;&lt;/a&gt;&lt;span style=&quot;color: rgb(71 , 71 , 71) ; font-family: &amp;#34;dejavu serif&amp;#34; , &amp;#34;georgia&amp;#34; , &amp;#34;times new roman&amp;#34; , &amp;#34;times&amp;#34; , serif ; font-size: 14px ; background-color: rgb(255 , 255 , 255)&quot;&gt;&amp;nbsp;operations.&lt;/span&gt;" style="text;html=1;align=center;verticalAlign=middle;resizable=0;points=[];autosize=1;" vertex="1" parent="1">
          <mxGeometry x="980" y="580" width="180" height="50" as="geometry" />
        </mxCell>
        <mxCell id="Ks9ShcCLQltz6Wq35oGR-17" value="&lt;span style=&quot;color: rgb(71 , 71 , 71) ; font-family: &amp;#34;dejavu serif&amp;#34; , &amp;#34;georgia&amp;#34; , &amp;#34;times new roman&amp;#34; , &amp;#34;times&amp;#34; , serif ; font-size: 14px ; background-color: rgb(255 , 255 , 255)&quot;&gt;This class provides &lt;br&gt;a skeletal implementation&lt;br&gt;&amp;nbsp;of the&amp;nbsp;&lt;/span&gt;&lt;code style=&quot;font-family: &amp;#34;dejavu sans mono&amp;#34; , monospace ; font-size: 14px ; padding-top: 4px ; margin-top: 8px ; line-height: 1.4em ; color: rgb(71 , 71 , 71) ; background-color: rgb(255 , 255 , 255)&quot;&gt;Collection&lt;/code&gt;&lt;span style=&quot;color: rgb(71 , 71 , 71) ; font-family: &amp;#34;dejavu serif&amp;#34; , &amp;#34;georgia&amp;#34; , &amp;#34;times new roman&amp;#34; , &amp;#34;times&amp;#34; , serif ; font-size: 14px ; background-color: rgb(255 , 255 , 255)&quot;&gt;&amp;nbsp;interface&lt;/span&gt;" style="text;html=1;align=center;verticalAlign=middle;resizable=0;points=[];autosize=1;" vertex="1" parent="1">
          <mxGeometry x="1040" y="420" width="200" height="50" as="geometry" />
        </mxCell>
      </root>
    </mxGraphModel>
  </diagram>
</mxfile>
